<?xml version="1.0" encoding="UTF-8"?>
<svg id="Layer_2" data-name="Layer 2" xmlns="http://www.w3.org/2000/svg" viewBox="0 0 211.87 61.8">
  <defs>
    <style>
      .cls-1 {
        fill: #6d6e71;
      }
    </style>
  </defs>
  <g id="Layer_1-2" data-name="Layer 1">
    <path class="cls-1" d="M121.6,16.01c.53-.38.15-9.3.25-10.8.16-2.47.31-4.64,3.29-4.76l82.61-.04c1.35.04,3.16.32,3.64,1.82.62,1.94.61,10.82.06,12.82-.2.72-.58,1.05-1.24,1.36-2.56,1.19-10.5-.06-13.88.41-.76.1-1.43.37-1.77,1.06-.07.13-.09.28-.09.43l-.12,39.09s0,.1-.01.15c-.28,2.05-.51,3.26-2.78,3.64-2.53.42-9.72.3-12.42.07-5.16-.44-3.01-4.82-3.54-8.35-.14-.93-1.35-1.21-1.92-.47-.89,1.15-1.93,2.69-2.32,3.08-3.67,3.68-9.99,5.65-15.07,5.72-12.01.14-24.29.14-36.05-.07-4.41.06-3.6-8.75-6.36-9.75-.51-.18-1.91-.29-2.52-.34-3.86-.24-9.69-.27-13.54,0-.52.04-1.85.18-2.26.33-2.66.95-1.74,9.17-6.03,9.57-2.26.21-8.53.3-10.65-.03-.4-.06-.75-.24-1.09-.44-.12-.07-.23-.17-.32-.27-4.35-5.48-7.23-12.13-11.11-17.96-2.23-3.36-2.4-2.97-5.06-.16-1.56,1.65-3.18,3.37-3.38,5.72-.23,2.74.64,10.32-.54,12.19-.59.93-1.9,1.13-2.94,1.21-2.89.24-9.13.31-11.96,0-1.49-.17-2.99-1.51-4.16-1.52-1.41-.02-5.36,1.48-7.31,1.74-10.01,1.35-22.7-1.18-28.27-10.39-1.45-2.39-5.18-9.94-.29-10.39,4.19-.39,9.09.2,13.38.13.19,0,.39.04.55.14,1.54.96,1.96,2.94,3.15,4.25,2.55,2.77,7.71,3.35,11.13,2.12,3-1.08,5.02-4.35,1.95-6.62-2.41-1.78-13.75-3-17.54-4.03-7.68-2.07-13.48-6.4-14.26-14.85C-.88,3.6,17.41-1.78,32.26.49c1.81.28,5.47,1.78,6.89,1.29.58-.2,1.06-.76,1.63-.97,1.87-.69,11.27-.6,13.65-.4,1.97.17,3.19.62,3.48,2.76.64,4.75-.54,10.78.02,15.58,0,.04.01.08.01.12.11.84,1.11,1.23,1.76.69.78-.65,1.68-1.64,2-1.97,4.17-4.38,7.82-9.38,11.95-13.78,1.95-2.07,2.66-3.43,5.71-3.38,10.69.14,22.08-.26,32.89.05h.18c1.54.18,2.34.55,3.14,1.95,1.85,3.27,2.72,8.18,4.42,11.7.17.35,1.01,2.32,1.6,1.9h0ZM89.18,15.04c.37-1.1-1-1.93-1.8-1.1-.21.23-.38.41-.47.5-2.15,2.25-4.96,5.48-6.88,7.94-.73.94-1.92,2.1-1.82,3.34.05.67,2.97,5.76,3.44,5.97.89.39,1.27-.08,1.68-.81,1.65-2.85,4.12-10.75,5.27-14.22.18-.54.39-1.08.57-1.62h0ZM24.63,13.74c-2.56.09-6.16,1.25-5.65,4.46.24,1.53,2.06,2,3.36,2.36,3.62,1,10.74,2.36,14.46,2.69,1.84.17,3.05-.18,2.39-2.39-.42-1.36-2.89-.84-3.95-.98-3-.4-3.12-3.42-5.26-4.87-1.45-.98-3.59-1.33-5.33-1.27h0ZM140.64,22.44c.25.26,1.21.55,1.62.59,1.84.2,7.8.23,9.5-.12,4.3-.88,4.17-6.41.06-7.1-3.06-.51-7.3.16-10.48.06-1.59.22-1.15,6.1-.7,6.58h0ZM173.75,35.68c.59.75,1.84.41,1.92-.54v-.02c.28-4.05.45-12.23,0-16.13-.17-1.44-1.32-2.5-2.14-.83-.86,1.76.09,2.06-2.07,6.24-.95,1.83-2.48,2.83-3.62,4.31-.35.46-.29,1.13.17,1.49.65.53,1.64,1.02,2.07,1.4.81.69,1.75,1.67,2.48,2.45.21.23.69.96,1.21,1.62h0ZM104.61,21.22c-.76.13-2.01,4.61-2.31,5.51-.43,1.31-2.24,6.63-1.96,7.55.16.52.89.86,1.4.95.84.14,4.91.22,6.62-.24.45-.12.78-.52.8-.99.01-.39-.02-.78-.09-1.16-.23-1.35-3.09-10.29-3.72-11.1-.18-.23-.39-.58-.73-.52ZM141.54,38.16c-1.03.27-1.15.94-1.24,1.88-.1,1.14-.31,4.11.48,5.29.2.29.54.45.89.44,3.82-.1,8.6.61,12.25.1,4.82-.66,4.99-7.29-.48-7.78-3.76-.34-8.08.23-11.91.07Z"/>
  </g>
</svg>