<?xml version="1.0" encoding="UTF-8"?>
<svg id="Layer_2" data-name="Layer 2" xmlns="http://www.w3.org/2000/svg" viewBox="0 0 755.65 571.16">
  <g id="Layer_1-2" data-name="Layer 1">
    <path d="M755.64,394.91h0v-24.36h0c-89.86,0-162.7-38.04-162.7-84.96s72.84-84.96,162.7-84.96h0v-24.36h0c-97.34,0-176.26-78.91-176.26-176.26h-25.31c0,97.34-80.35,160.47-177.7,160.47S201.57,97.34,201.57,0h-25.31c0,97.34-78.91,176.26-176.26,176.26v24.36c89.86,0,162.7,38.04,162.7,84.96S89.86,370.54,0,370.54v24.36c97.34,0,176.26,78.91,176.26,176.26h25.31c0-97.34,77.47-158.52,174.81-158.52s177.7,61.18,177.7,158.52h25.31c0-97.34,78.91-176.26,176.26-176.26h-.01ZM376.38,370.55c-89.86,0-162.7-38.04-162.7-84.96s72.84-84.96,162.7-84.96,162.7,38.04,162.7,84.96-72.84,84.96-162.7,84.96Z"/>
  </g>
</svg>