<?xml version="1.0" encoding="UTF-8"?>
<svg id="Layer_2" data-name="Layer 2" xmlns="http://www.w3.org/2000/svg" viewBox="0 0 862.32 187.86">
  <g id="Layer_1-2" data-name="Layer 1">
    <g>
      <path d="M0,93.92C0,45.93,32.25,0,85.41,0c39.22,0,65.8,22.19,75.34,54.19h-20.64c-8.77-21.16-25.54-36.12-54.7-36.12-42.32,0-65.28,38.19-65.28,75.86s22.96,75.86,65.28,75.86c29.16,0,45.93-14.97,54.7-36.12h20.64c-9.55,32-36.12,54.19-75.34,54.19C32.26,187.86,0,141.93,0,93.94v-.02Z"/>
      <path d="M173.91,93.92C173.91,46.96,207.97,0,260.86,0s86.96,46.96,86.96,93.92-34.06,93.92-86.96,93.92-86.95-46.96-86.95-93.92h0ZM327.69,93.92c0-37.41-25.54-75.86-66.57-75.86s-67.09,38.45-67.09,75.86,26.06,75.86,67.09,75.86,66.57-38.45,66.57-75.86h0Z"/>
      <path d="M368.98,3.61h19.61l110.43,152.49V3.61h19.09v180.62h-19.61L388.06,31.74v152.49h-19.09V3.61h0Z"/>
      <path d="M530.24,3.61h19.87l59.6,157.91L669.31,3.61h19.87l-69.15,180.62h-20.64L530.24,3.61h0Z"/>
      <path d="M688.41,93.92c0-46.96,34.06-93.92,86.96-93.92s86.95,46.96,86.95,93.92-34.06,93.92-86.95,93.92-86.96-46.96-86.96-93.92h0ZM842.19,93.92c0-37.41-25.54-75.86-66.57-75.86s-67.09,38.45-67.09,75.86,26.06,75.86,67.09,75.86,66.57-38.45,66.57-75.86h0Z"/>
    </g>
  </g>
</svg>