<?xml version="1.0" encoding="UTF-8"?>
<svg id="Layer_2" data-name="Layer 2" xmlns="http://www.w3.org/2000/svg" viewBox="0 0 84.58 63.93">
  <defs>
    <style>
      .cls-1 {
        fill: #6d6e71;
      }
    </style>
  </defs>
  <g id="Layer_1-2" data-name="Layer 1">
    <path class="cls-1" d="M84.58,44.2h0v-2.73h0c-10.06,0-18.21-4.26-18.21-9.51s8.15-9.51,18.21-9.51h0v-2.73h0c-10.9,0-19.73-8.83-19.73-19.73h-2.83c0,10.9-8.99,17.96-19.89,17.96S22.56,10.9,22.56,0h-2.83c0,10.9-8.83,19.73-19.73,19.73v2.73c10.06,0,18.21,4.26,18.21,9.51S10.06,41.48,0,41.48v2.73c10.9,0,19.73,8.83,19.73,19.73h2.83c0-10.9,8.67-17.74,19.57-17.74s19.89,6.85,19.89,17.74h2.83c0-10.9,8.83-19.73,19.73-19.73h0ZM42.13,41.48c-10.06,0-18.21-4.26-18.21-9.51s8.15-9.51,18.21-9.51,18.21,4.26,18.21,9.51-8.15,9.51-18.21,9.51Z"/>
  </g>
</svg>